<svg xmlns="http://www.w3.org/2000/svg" version="1.1" xmlns:xlink="http://www.w3.org/1999/xlink" xmlns:svgjs="http://svgjs.dev/svgjs" width="1440" height="560" preserveAspectRatio="none" viewBox="0 0 1440 560"><g mask="url(&quot;#SvgjsMask1184&quot;)" fill="none"><rect width="1440" height="560" x="0" y="0" fill="url(&quot;#SvgjsLinearGradient1185&quot;)"></rect><path d="M1440 0L1283.63 0L1440 156.5z" fill="rgba(255, 255, 255, .1)"></path><path d="M1283.63 0L1440 156.5L1440 298.07L910.8500000000001 0z" fill="rgba(255, 255, 255, .075)"></path><path d="M910.85 0L1440 298.07L1440 411.22L343.27 0z" fill="rgba(255, 255, 255, .05)"></path><path d="M343.27 0L1440 411.22L1440 511.92L326 0z" fill="rgba(255, 255, 255, .025)"></path><path d="M0 560L309.36 560L0 333.63z" fill="rgba(0, 0, 0, .1)"></path><path d="M0 333.63L309.36 560L919.66 560L0 206.88z" fill="rgba(0, 0, 0, .075)"></path><path d="M0 206.88L919.66 560L1084.62 560L0 105z" fill="rgba(0, 0, 0, .05)"></path><path d="M0 105L1084.62 560L1092.11 560L0 94.38z" fill="rgba(0, 0, 0, .025)"></path></g><defs><mask id="SvgjsMask1184"><rect width="1440" height="560" fill="#ffffff"></rect></mask><linearGradient x1="15.28%" y1="-39.29%" x2="84.72%" y2="139.29%" gradientUnits="userSpaceOnUse" id="SvgjsLinearGradient1185"><stop stop-color="#0e2a47" offset="0"></stop><stop stop-color="rgba(0, 158, 47, 1)" offset="1"></stop></linearGradient></defs></svg>